<svg width="94" height="26" viewBox="0 0 94 26" fill="none" xmlns="http://www.w3.org/2000/svg">
<g filter="url(#filter0_d)">
<path d="M15.975 11.8207C15.5242 11.329 15.4647 10.5245 15.826 9.96373C16.2996 9.22882 16.5672 8.34569 16.5672 7.32213C16.5672 4.10224 13.9478 2 10.7198 2H5C3.34314 2 2 3.34315 2 5V17.6274C2 19.2843 3.34315 20.6274 5 20.6274H11.2489C14.5563 20.6274 17.2287 18.472 17.2287 15.1723C17.2287 13.8046 16.7573 12.6739 15.975 11.8207ZM10.7198 5.9916C11.6987 5.9916 12.3338 6.68347 12.3338 7.64146C12.3338 8.59944 11.6723 9.29132 10.7198 9.29132H9.35327C8.44208 9.29132 7.70341 8.55265 7.70341 7.64146C7.70341 6.73026 8.44208 5.9916 9.35327 5.9916H10.7198ZM11.2489 16.6359H9.48633C8.50165 16.6359 7.70341 15.8376 7.70341 14.8529C7.70341 13.8683 8.50165 13.07 9.48633 13.07H11.2489C12.3073 13.07 12.9952 13.8151 12.9952 14.8529C12.9952 15.8908 12.3073 16.6359 11.2489 16.6359Z" fill="#DDFD5B"/>
<path d="M26.2176 21C30.2923 21 33.3615 18.605 33.3615 14.6134V5.5951C33.3615 4.42606 32.4138 3.47837 31.2448 3.47837C30.0758 3.47837 29.1281 4.42606 29.1281 5.5951V9.80579C29.1281 11.2162 28.4666 13.892 26.2176 13.892C23.9685 13.892 23.3071 11.2162 23.3071 9.80579V5.5951C23.3071 4.42606 22.3594 3.47837 21.1903 3.47837C20.0213 3.47837 19.0736 4.42606 19.0736 5.5951V14.6134C19.0736 18.605 22.1429 21 26.2176 21Z" fill="#DDFD5B"/>
<path d="M34.9447 12.6709C34.9447 13.729 35.8025 14.5868 36.8607 14.5868H38.6734C39.7315 14.5868 40.5893 13.729 40.5893 12.6709C40.5893 11.6127 39.7315 10.7549 38.6734 10.7549H36.8607C35.8025 10.7549 34.9447 11.6127 34.9447 12.6709Z" fill="#DDFD5B"/>
<path d="M54.1337 20.6274C57.2321 20.6274 58.5131 16.657 55.9988 14.8462L53.7983 13.2614C52.1106 12.046 51.704 9.70447 52.883 7.99116L54.8626 5.11445C55.7701 3.7957 54.826 2 53.2251 2C52.5765 2 51.9687 2.31649 51.5967 2.84788L48.9122 6.68325C48.1774 7.73303 46.5279 7.21311 46.5279 5.93172V4.11673C46.5279 2.94769 45.5802 2 44.4112 2C43.2422 2 42.2945 2.94769 42.2945 4.11673V18.5107C42.2945 19.6798 43.2422 20.6274 44.4112 20.6274C45.5802 20.6274 46.5279 19.6798 46.5279 18.5107V16.469C46.5279 15.1077 48.2852 14.5619 49.0564 15.6838L51.5037 19.2439C52.0991 20.11 53.0827 20.6274 54.1337 20.6274Z" fill="#DDFD5B"/>
<path d="M70.4869 19.4112C70.8946 20.1608 71.6796 20.6274 72.5329 20.6274C74.1267 20.6274 75.2496 19.0625 74.7392 17.5526L70.3458 4.55669C69.8292 3.02857 68.3957 2 66.7826 2C65.1695 2 63.736 3.02857 63.2194 4.55668L58.826 17.5526C58.3156 19.0625 59.4385 20.6274 61.0323 20.6274C61.8857 20.6274 62.6706 20.1608 63.0783 19.4112L63.8718 17.9523C64.4518 16.8858 65.5686 16.2219 66.7826 16.2219C67.9966 16.2219 69.1134 16.8858 69.6934 17.9523L70.4869 19.4112ZM65.9073 12.2303C65.2525 12.2303 64.7744 11.6115 64.9397 10.9779L65.815 7.62236C66.075 6.62558 67.4902 6.62558 67.7502 7.62236L68.6255 10.9779C68.7908 11.6115 68.3127 12.2303 67.6579 12.2303H65.9073Z" fill="#DDFD5B"/>
<path d="M83.2413 16.5294C82.3301 16.5294 81.5914 15.7907 81.5914 14.8796C81.5914 13.9684 82.3301 13.2297 83.2413 13.2297H86.1838C87.3008 13.2297 88.2062 12.3242 88.2062 11.2073C88.2062 10.0903 87.3008 9.18488 86.1838 9.18488H83.1349C82.2825 9.18488 81.5914 8.49386 81.5914 7.64146C81.5914 6.78905 82.2825 6.09804 83.1349 6.09804H85.3487C86.4804 6.09804 87.3978 5.18066 87.3978 4.04902C87.3978 2.91738 86.4804 2 85.3487 2H80.358C78.7011 2 77.358 3.34315 77.358 5V17.6274C77.358 19.2843 78.7011 20.6274 80.358 20.6274H86.951C88.0826 20.6274 89 19.7101 89 18.5784C89 17.4468 88.0826 16.5294 86.951 16.5294H83.2413Z" fill="#DDFD5B"/>
<path d="M16.7121 11.1449C16.576 10.9965 16.5455 10.6934 16.6666 10.5054C17.2498 9.60041 17.5672 8.52735 17.5672 7.32213C17.5672 3.43056 14.3726 1 10.7198 1H5C2.79086 1 1 2.79086 1 5V17.6274C1 19.8366 2.79086 21.6274 5 21.6274H11.2489C14.7284 21.6274 17.7819 19.4699 18.1839 15.9666C18.4643 17.6357 19.2681 19.0322 20.4656 20.0618C21.958 21.345 23.9905 22 26.2176 22C28.4446 22 30.4771 21.345 31.9695 20.0618C33.4779 18.7649 34.3615 16.8861 34.3615 14.6134V14.1741C34.8718 15.0207 35.8001 15.5868 36.8607 15.5868H38.6734C39.8249 15.5868 40.8206 14.9193 41.2945 13.9501V18.5107C41.2945 20.232 42.6899 21.6274 44.4112 21.6274C46.1325 21.6274 47.5279 20.232 47.5279 18.5107V16.469C47.5279 16.0898 48.0175 15.9377 48.2323 16.2502L50.6796 19.8104C51.4616 20.9479 52.7534 21.6274 54.1337 21.6274C55.8985 21.6274 57.2143 20.6467 57.8694 19.3418C58.3007 20.6388 59.5178 21.6274 61.0323 21.6274C62.252 21.6274 63.3741 20.9604 63.9568 19.889L64.7503 18.4301C65.1552 17.6854 65.935 17.2219 66.7826 17.2219C67.6302 17.2219 68.41 17.6854 68.8149 18.4301L69.6934 17.9523L68.8149 18.4301L69.6084 19.889C70.1911 20.9604 71.3132 21.6274 72.5329 21.6274C74.8111 21.6274 76.4161 19.3905 75.6865 17.2323L71.2931 4.23643C70.6391 2.30203 68.8245 1 66.7826 1C64.7407 1 62.9261 2.30203 62.2721 4.23643L58.1902 16.3107C57.9582 15.4552 57.4375 14.65 56.5832 14.0348L54.3827 12.4499C53.1364 11.5524 52.8361 9.82327 53.7068 8.55804L55.6864 5.68134C57.0504 3.69912 55.6313 1 53.2251 1C52.2502 1 51.3365 1.47571 50.7775 2.27445L48.0929 6.10982C48.0378 6.18859 47.9828 6.21868 47.9373 6.23258C47.8842 6.24882 47.8162 6.25032 47.7451 6.22793C47.6741 6.20554 47.6192 6.16531 47.585 6.12154C47.5557 6.08406 47.5279 6.02787 47.5279 5.93172V4.11673C47.5279 2.39541 46.1325 1 44.4112 1C42.6899 1 41.2945 2.39541 41.2945 4.11673V11.3916C40.8206 10.4224 39.8249 9.7549 38.6734 9.7549H36.8607C35.8001 9.7549 34.8718 10.3211 34.3615 11.1677V5.5951C34.3615 3.87378 32.9661 2.47837 31.2448 2.47837C29.5235 2.47837 28.1281 3.87378 28.1281 5.5951V9.80579C28.1281 10.3919 27.9844 11.2436 27.632 11.9107C27.2946 12.5494 26.8518 12.892 26.2176 12.892C25.5834 12.892 25.1405 12.5494 24.8031 11.9107C24.4508 11.2436 24.3071 10.3919 24.3071 9.80579V5.5951C24.3071 3.87377 22.9117 2.47837 21.1903 2.47837C19.469 2.47837 18.0736 3.87378 18.0736 5.5951V13.7523C17.8452 12.7447 17.3727 11.8654 16.7121 11.1449ZM10.7198 6.9916C10.9639 6.9916 11.0979 7.07215 11.1726 7.14997C11.2518 7.23242 11.3338 7.38534 11.3338 7.64146C11.3338 7.88631 11.2524 8.0406 11.1668 8.12874C11.0836 8.21438 10.945 8.29132 10.7198 8.29132H9.35327C8.99436 8.29132 8.70341 8.00036 8.70341 7.64146C8.70341 7.28255 8.99436 6.9916 9.35327 6.9916H10.7198ZM11.2489 15.6359H9.48633C9.05394 15.6359 8.70341 15.2853 8.70341 14.8529C8.70341 14.4206 9.05393 14.07 9.48633 14.07H11.2489C11.534 14.07 11.7012 14.1647 11.7986 14.2659C11.9002 14.3714 11.9952 14.5571 11.9952 14.8529C11.9952 15.1488 11.9002 15.3344 11.7986 15.44C11.7012 15.5411 11.534 15.6359 11.2489 15.6359ZM65.9073 11.2303L66.7826 7.87477L67.6579 11.2303L65.9073 11.2303ZM83.2413 15.5294C82.8824 15.5294 82.5914 15.2385 82.5914 14.8796C82.5914 14.5206 82.8824 14.2297 83.2413 14.2297H86.1838C87.8531 14.2297 89.2062 12.8765 89.2062 11.2073C89.2062 9.53805 87.8531 8.18488 86.1838 8.18488H83.1349C82.8347 8.18488 82.5914 7.94158 82.5914 7.64146C82.5914 7.34134 82.8347 7.09804 83.1349 7.09804H85.3487C87.0327 7.09804 88.3978 5.73295 88.3978 4.04902C88.3978 2.36509 87.0327 1 85.3487 1H80.358C78.1488 1 76.358 2.79086 76.358 5V17.6274C76.358 19.8366 78.1488 21.6274 80.358 21.6274H86.951C88.6349 21.6274 90 20.2624 90 18.5784C90 16.8945 88.6349 15.5294 86.951 15.5294H83.2413Z" stroke="black" stroke-width="2"/>
</g>
<defs>
<filter id="filter0_d" x="0" y="0" width="94" height="26" filterUnits="userSpaceOnUse" color-interpolation-filters="sRGB">
<feFlood flood-opacity="0" result="BackgroundImageFix"/>
<feColorMatrix in="SourceAlpha" type="matrix" values="0 0 0 0 0 0 0 0 0 0 0 0 0 0 0 0 0 0 127 0"/>
<feOffset dx="3" dy="3"/>
<feColorMatrix type="matrix" values="0 0 0 0 0 0 0 0 0 0 0 0 0 0 0 0 0 0 1 0"/>
<feBlend mode="normal" in2="BackgroundImageFix" result="effect1_dropShadow"/>
<feBlend mode="normal" in="SourceGraphic" in2="effect1_dropShadow" result="shape"/>
</filter>
</defs>
</svg>
