<svg width="40" height="40" viewBox="0 0 40 40" fill="none" xmlns="http://www.w3.org/2000/svg">
<g filter="url(#filter0_d)">
<mask id="path-1-outside-1" maskUnits="userSpaceOnUse" x="-1.2132" y="-1.24264" width="42.4264" height="42.4264" fill="black">
<rect fill="white" x="-1.2132" y="-1.24264" width="42.4264" height="42.4264"/>
<path fill-rule="evenodd" clip-rule="evenodd" d="M28.5312 11.5312C27.9454 10.9454 26.9957 10.9454 26.4099 11.5312L19.9706 17.9706L13.5607 11.5607C12.9749 10.9749 12.0251 10.9749 11.4393 11.5607C10.8536 12.1464 10.8536 13.0962 11.4393 13.682L17.8492 20.0919L11.5607 26.3805C10.9749 26.9663 10.9749 27.916 11.5607 28.5018C12.1464 29.0876 13.0962 29.0876 13.682 28.5018L19.9706 22.2132L26.2886 28.5312C26.8744 29.117 27.8241 29.117 28.4099 28.5312C28.9957 27.9454 28.9957 26.9957 28.4099 26.4099L22.0919 20.0919L28.5312 13.6525C29.117 13.0668 29.117 12.117 28.5312 11.5312Z"/>
</mask>
<path fill-rule="evenodd" clip-rule="evenodd" d="M28.5312 11.5312C27.9454 10.9454 26.9957 10.9454 26.4099 11.5312L19.9706 17.9706L13.5607 11.5607C12.9749 10.9749 12.0251 10.9749 11.4393 11.5607C10.8536 12.1464 10.8536 13.0962 11.4393 13.682L17.8492 20.0919L11.5607 26.3805C10.9749 26.9663 10.9749 27.916 11.5607 28.5018C12.1464 29.0876 13.0962 29.0876 13.682 28.5018L19.9706 22.2132L26.2886 28.5312C26.8744 29.117 27.8241 29.117 28.4099 28.5312C28.9957 27.9454 28.9957 26.9957 28.4099 26.4099L22.0919 20.0919L28.5312 13.6525C29.117 13.0668 29.117 12.117 28.5312 11.5312Z" fill="white"/>
<path d="M26.4099 11.5312L24.76 9.88131L26.4099 11.5312ZM19.9706 17.9706L18.3206 19.6205L19.9706 21.2704L21.6205 19.6205L19.9706 17.9706ZM17.8492 20.0919L19.4992 21.7418L21.1491 20.0919L19.4992 18.442L17.8492 20.0919ZM11.5607 26.3805L9.91074 24.7305L11.5607 26.3805ZM13.682 28.5018L12.0321 26.8519L13.682 28.5018ZM19.9706 22.2132L21.6205 20.5633L19.9706 18.9134L18.3206 20.5633L19.9706 22.2132ZM22.0919 20.0919L20.442 18.442L18.7921 20.0919L20.442 21.7418L22.0919 20.0919ZM28.5312 13.6525L26.8813 12.0026L28.5312 13.6525ZM28.0598 13.1811C27.7344 13.5066 27.2067 13.5066 26.8813 13.1811L30.1811 9.88131C28.6841 8.3843 26.257 8.3843 24.76 9.88131L28.0598 13.1811ZM21.6205 19.6205L28.0598 13.1811L24.76 9.88131L18.3206 16.3206L21.6205 19.6205ZM11.9107 13.2106L18.3206 19.6205L21.6205 16.3206L15.2106 9.91074L11.9107 13.2106ZM13.0893 13.2106C12.7638 13.536 12.2362 13.536 11.9107 13.2106L15.2106 9.91074C13.7136 8.41373 11.2864 8.41373 9.78942 9.91074L13.0893 13.2106ZM13.0893 12.0321C13.4147 12.3575 13.4147 12.8851 13.0893 13.2106L9.78942 9.91074C8.29241 11.4078 8.29241 13.8349 9.78942 15.3319L13.0893 12.0321ZM19.4992 18.442L13.0893 12.0321L9.78942 15.3319L16.1993 21.7418L19.4992 18.442ZM13.2106 28.0304L19.4992 21.7418L16.1993 18.442L9.91074 24.7305L13.2106 28.0304ZM13.2106 26.8519C13.536 27.1773 13.536 27.7049 13.2106 28.0304L9.91074 24.7305C8.41373 26.2276 8.41374 28.6547 9.91075 30.1517L13.2106 26.8519ZM12.0321 26.8519C12.3575 26.5264 12.8851 26.5264 13.2106 26.8519L9.91075 30.1517C11.4078 31.6487 13.8349 31.6487 15.3319 30.1517L12.0321 26.8519ZM18.3206 20.5633L12.0321 26.8519L15.3319 30.1517L21.6205 23.8631L18.3206 20.5633ZM27.9385 26.8813L21.6205 20.5633L18.3206 23.8631L24.6387 30.1811L27.9385 26.8813ZM26.76 26.8813C27.0854 26.5559 27.6131 26.5559 27.9385 26.8813L24.6387 30.1811C26.1357 31.6781 28.5628 31.6781 30.0598 30.1811L26.76 26.8813ZM26.76 28.0598C26.4345 27.7344 26.4345 27.2067 26.76 26.8813L30.0598 30.1811C31.5568 28.6841 31.5568 26.257 30.0598 24.76L26.76 28.0598ZM20.442 21.7418L26.76 28.0598L30.0598 24.76L23.7418 18.442L20.442 21.7418ZM26.8813 12.0026L20.442 18.442L23.7418 21.7418L30.1811 15.3025L26.8813 12.0026ZM26.8813 13.1811C26.5559 12.8557 26.5559 12.3281 26.8813 12.0026L30.1811 15.3025C31.6781 13.8054 31.6781 11.3783 30.1811 9.88131L26.8813 13.1811Z" fill="black" mask="url(#path-1-outside-1)"/>
</g>
<defs>
<filter id="filter0_d" x="8.6665" y="8.75854" width="22.6372" height="24.1009" filterUnits="userSpaceOnUse" color-interpolation-filters="sRGB">
<feFlood flood-opacity="0" result="BackgroundImageFix"/>
<feColorMatrix in="SourceAlpha" type="matrix" values="0 0 0 0 0 0 0 0 0 0 0 0 0 0 0 0 0 0 127 0"/>
<feOffset dy="1.55556"/>
<feColorMatrix type="matrix" values="0 0 0 0 0 0 0 0 0 0 0 0 0 0 0 0 0 0 1 0"/>
<feBlend mode="normal" in2="BackgroundImageFix" result="effect1_dropShadow"/>
<feBlend mode="normal" in="SourceGraphic" in2="effect1_dropShadow" result="shape"/>
</filter>
</defs>
</svg>
