<svg width="40" height="40" viewBox="0 0 40 40" fill="none" xmlns="http://www.w3.org/2000/svg">
<g filter="url(#filter0_d)">
<mask id="path-1-outside-1" maskUnits="userSpaceOnUse" x="4.61522" y="1.75748" width="36.7696" height="36.7696" fill="black">
<rect fill="white" x="4.61522" y="1.75748" width="36.7696" height="36.7696"/>
<path fill-rule="evenodd" clip-rule="evenodd" d="M27.0709 10.071C26.4851 9.48523 25.5354 9.48523 24.9496 10.071L16.8783 18.1423L14.9288 16.1927C14.343 15.6069 13.3932 15.6069 12.8074 16.1927C12.2217 16.7785 12.2217 17.7282 12.8074 18.314L14.757 20.2636L12.9288 22.0918C12.343 22.6776 12.343 23.6274 12.9288 24.2132C13.5145 24.7989 14.4643 24.7989 15.0501 24.2132L16.8783 22.3849L24.8283 30.3348C25.414 30.9206 26.3638 30.9206 26.9496 30.3348C27.5354 29.749 27.5354 28.7993 26.9496 28.2135L18.9997 20.2636L27.0709 12.1923C27.6567 11.6066 27.6567 10.6568 27.0709 10.071Z"/>
</mask>
<path fill-rule="evenodd" clip-rule="evenodd" d="M27.0709 10.071C26.4851 9.48523 25.5354 9.48523 24.9496 10.071L16.8783 18.1423L14.9288 16.1927C14.343 15.6069 13.3932 15.6069 12.8074 16.1927C12.2217 16.7785 12.2217 17.7282 12.8074 18.314L14.757 20.2636L12.9288 22.0918C12.343 22.6776 12.343 23.6274 12.9288 24.2132C13.5145 24.7989 14.4643 24.7989 15.0501 24.2132L16.8783 22.3849L24.8283 30.3348C25.414 30.9206 26.3638 30.9206 26.9496 30.3348C27.5354 29.749 27.5354 28.7993 26.9496 28.2135L18.9997 20.2636L27.0709 12.1923C27.6567 11.6066 27.6567 10.6568 27.0709 10.071Z" fill="white"/>
<path d="M24.9496 10.071L23.2997 8.4211L24.9496 10.071ZM16.8783 18.1423L15.2284 19.7922L16.8783 21.4421L18.5283 19.7922L16.8783 18.1423ZM14.9288 16.1927L13.2788 17.8426L14.9288 16.1927ZM12.8074 18.314L11.1575 19.9639L12.8074 18.314ZM14.757 20.2636L16.4069 21.9135L18.0569 20.2636L16.4069 18.6137L14.757 20.2636ZM12.9288 22.0918L11.2788 20.4419L12.9288 22.0918ZM16.8783 22.3849L18.5283 20.735L16.8783 19.0851L15.2284 20.735L16.8783 22.3849ZM24.8283 30.3348L23.1783 31.9847L24.8283 30.3348ZM26.9496 28.2135L25.2997 29.8634L26.9496 28.2135ZM18.9997 20.2636L17.3497 18.6137L15.6998 20.2636L17.3497 21.9135L18.9997 20.2636ZM27.0709 12.1923L25.421 10.5424L27.0709 12.1923ZM26.5995 11.7209C26.2741 12.0464 25.7464 12.0464 25.421 11.7209L28.7208 8.4211C27.2238 6.92409 24.7967 6.92409 23.2997 8.4211L26.5995 11.7209ZM18.5283 19.7922L26.5995 11.7209L23.2997 8.4211L15.2284 16.4923L18.5283 19.7922ZM13.2788 17.8426L15.2284 19.7922L18.5283 16.4923L16.5787 14.5428L13.2788 17.8426ZM14.4574 17.8426C14.1319 18.168 13.6043 18.168 13.2788 17.8426L16.5787 14.5428C15.0817 13.0458 12.6545 13.0458 11.1575 14.5428L14.4574 17.8426ZM14.4574 16.6641C14.7828 16.9895 14.7828 17.5172 14.4574 17.8426L11.1575 14.5428C9.66052 16.0398 9.66052 18.4669 11.1575 19.9639L14.4574 16.6641ZM16.4069 18.6137L14.4574 16.6641L11.1575 19.9639L13.1071 21.9135L16.4069 18.6137ZM14.5787 23.7418L16.4069 21.9135L13.1071 18.6137L11.2788 20.4419L14.5787 23.7418ZM14.5787 22.5632C14.9041 22.8887 14.9041 23.4163 14.5787 23.7418L11.2788 20.4419C9.78184 21.9389 9.78184 24.3661 11.2788 25.8631L14.5787 22.5632ZM13.4002 22.5632C13.7256 22.2378 14.2532 22.2378 14.5787 22.5632L11.2788 25.8631C12.7759 27.3601 15.203 27.3601 16.7 25.8631L13.4002 22.5632ZM15.2284 20.735L13.4002 22.5632L16.7 25.8631L18.5283 24.0348L15.2284 20.735ZM26.4782 28.6849L18.5283 20.735L15.2284 24.0348L23.1783 31.9847L26.4782 28.6849ZM25.2997 28.6849C25.6251 28.3595 26.1527 28.3595 26.4782 28.6849L23.1783 31.9847C24.6754 33.4817 27.1025 33.4817 28.5995 31.9847L25.2997 28.6849ZM25.2997 29.8634C24.9742 29.538 24.9742 29.0103 25.2997 28.6849L28.5995 31.9847C30.0965 30.4877 30.0965 28.0606 28.5995 26.5636L25.2997 29.8634ZM17.3497 21.9135L25.2997 29.8634L28.5995 26.5636L20.6496 18.6137L17.3497 21.9135ZM25.421 10.5424L17.3497 18.6137L20.6496 21.9135L28.7208 13.8423L25.421 10.5424ZM25.421 11.7209C25.0955 11.3955 25.0955 10.8679 25.421 10.5424L28.7208 13.8423C30.2178 12.3452 30.2178 9.91811 28.7208 8.4211L25.421 11.7209Z" fill="black" mask="url(#path-1-outside-1)"/>
</g>
<defs>
<filter id="filter0_d" x="10.0347" y="7.29834" width="19.8088" height="27.3647" filterUnits="userSpaceOnUse" color-interpolation-filters="sRGB">
<feFlood flood-opacity="0" result="BackgroundImageFix"/>
<feColorMatrix in="SourceAlpha" type="matrix" values="0 0 0 0 0 0 0 0 0 0 0 0 0 0 0 0 0 0 127 0"/>
<feOffset dy="1.55556"/>
<feColorMatrix type="matrix" values="0 0 0 0 0 0 0 0 0 0 0 0 0 0 0 0 0 0 1 0"/>
<feBlend mode="normal" in2="BackgroundImageFix" result="effect1_dropShadow"/>
<feBlend mode="normal" in="SourceGraphic" in2="effect1_dropShadow" result="shape"/>
</filter>
</defs>
</svg>
